<?xml version="1.0" standalone="no"?><!DOCTYPE svg PUBLIC "-//W3C//DTD SVG 1.1//EN" "http://www.w3.org/Graphics/SVG/1.1/DTD/svg11.dtd"><svg t="1666050777384" class="icon" viewBox="0 0 1024 1024" version="1.1" xmlns="http://www.w3.org/2000/svg" p-id="5534" xmlns:xlink="http://www.w3.org/1999/xlink" width="200" height="200"><path d="M85.333333 42.666667h853.333334a42.666667 42.666667 0 0 1 42.666666 42.666666v170.666667a42.666667 42.666667 0 0 1-42.666666 42.666667H85.333333a42.666667 42.666667 0 0 1-42.666666-42.666667V85.333333a42.666667 42.666667 0 0 1 42.666666-42.666666z m0 341.333333h853.333334a42.666667 42.666667 0 0 1 42.666666 42.666667v170.666666a42.666667 42.666667 0 0 1-42.666666 42.666667H85.333333a42.666667 42.666667 0 0 1-42.666666-42.666667v-170.666666a42.666667 42.666667 0 0 1 42.666666-42.666667z m0 341.333333h853.333334a42.666667 42.666667 0 0 1 42.666666 42.666667v170.666667a42.666667 42.666667 0 0 1-42.666666 42.666666H85.333333a42.666667 42.666667 0 0 1-42.666666-42.666666v-170.666667a42.666667 42.666667 0 0 1 42.666666-42.666667zM85.333333 85.333333v170.666667h853.333334V85.333333H85.333333z m0 341.333334v170.666666h853.333334v-170.666666H85.333333z m0 341.333333v170.666667h853.333334v-170.666667H85.333333z m128-213.333333a42.666667 42.666667 0 1 1 0-85.333334 42.666667 42.666667 0 0 1 0 85.333334z m0-341.333334a42.666667 42.666667 0 1 1 0-85.333333 42.666667 42.666667 0 0 1 0 85.333333z" p-id="5535"></path></svg>